<?xml version="1.0" encoding="UTF-8" standalone="no"?>
<!DOCTYPE svg PUBLIC "-//W3C//DTD SVG 1.1//EN" "http://www.w3.org/Graphics/SVG/1.1/DTD/svg11.dtd">
<svg width="100%" height="100%" viewBox="0 0 848 1353" version="1.1" xmlns="http://www.w3.org/2000/svg" xmlns:xlink="http://www.w3.org/1999/xlink" xml:space="preserve" xmlns:serif="http://www.serif.com/" style="fill-rule:evenodd;clip-rule:evenodd;stroke-linecap:round;stroke-linejoin:round;stroke-miterlimit:1.5;">
    <g transform="matrix(1,0,0,1,-150.234,-288.747)">
        <path d="M712.217,1311.48L712.217,1134.72" style="fill:none;stroke:rgb(198,198,198);stroke-width:24px;"/>
        <path d="M712.217,1311.48L712.217,1134.72" style="fill:none;stroke:rgb(198,198,198);stroke-width:24px;"/>
        <g transform="matrix(1,0,0,1,155.978,0.13921)">
            <path d="M712.217,1311.48L712.217,1134.72" style="fill:none;stroke:rgb(198,198,198);stroke-width:24px;"/>
        </g>
        <g transform="matrix(1,0,0,1,-426.45,-0.658082)">
            <path d="M712.217,1311.48L712.217,1134.72" style="fill:none;stroke:rgb(198,198,198);stroke-width:24px;"/>
        </g>
        <path d="M712.217,1311.48L712.217,1134.72" style="fill:none;stroke:rgb(198,198,198);stroke-width:24px;"/>
        <g transform="matrix(1,0,0,1,-464.796,-634.612)">
            <path d="M712.217,1311.48L712.217,1134.72" style="fill:none;stroke:rgb(198,198,198);stroke-width:24px;"/>
        </g>
        <g transform="matrix(1,0,0,1,-462.631,-312.829)">
            <path d="M712.217,1311.48L712.217,1134.72" style="fill:none;stroke:rgb(198,198,198);stroke-width:24px;"/>
        </g>
        <g transform="matrix(1,0,0,1,188.825,-629.892)">
            <path d="M712.217,1311.48L712.217,1134.72" style="fill:none;stroke:rgb(198,198,198);stroke-width:24px;"/>
        </g>
        <g transform="matrix(1,0,0,1,-31.3158,-308.59)">
            <path d="M712.217,1311.48L712.217,1134.72" style="fill:none;stroke:rgb(198,198,198);stroke-width:24px;"/>
        </g>
        <g transform="matrix(1,0,0,1,187.401,-312.658)">
            <path d="M712.217,1311.48L712.217,1134.72" style="fill:none;stroke:rgb(198,198,198);stroke-width:24px;"/>
        </g>
        <path d="M326.03,751.434L398.381,751.434" style="fill:none;stroke:rgb(198,198,198);stroke-width:24px;"/>
        <path d="M433.519,1489.24L573.187,1628.91" style="fill:none;stroke:rgb(198,198,198);stroke-width:24px;"/>
        <path d="M573.187,1628.91L442.935,1628.91" style="fill:none;stroke:rgb(198,198,198);stroke-width:24px;"/>
        <path d="M573.187,1628.91L724.565,1477.53" style="fill:none;stroke:rgb(198,198,198);stroke-width:24px;"/>
        <path d="M573.187,1628.91L711.166,1628.91" style="fill:none;stroke:rgb(198,198,198);stroke-width:24px;"/>
        <path d="M573.187,1628.91L711.166,1628.91" style="fill:none;stroke:rgb(198,198,198);stroke-width:24px;"/>
        <path d="M641.827,1012.15L582.255,952.576" style="fill:none;stroke:rgb(198,198,198);stroke-width:24px;"/>
        <g transform="matrix(1,0,0,1,-420.021,-3.44227)">
            <path d="M641.827,1012.15L582.255,952.576" style="fill:none;stroke:rgb(198,198,198);stroke-width:24px;"/>
        </g>
        <g transform="matrix(1,0,0,1,-410.864,-647.122)">
            <path d="M641.827,1012.15L582.255,952.576" style="fill:none;stroke:rgb(198,198,198);stroke-width:24px;"/>
        </g>
        <g transform="matrix(1,0,0,1,232.866,-649.691)">
            <path d="M641.827,1012.15L582.255,952.576" style="fill:none;stroke:rgb(198,198,198);stroke-width:24px;"/>
        </g>
        <g transform="matrix(-1.83697e-16,-1,1,-1.83697e-16,-239.332,1592.8)">
            <path d="M641.827,1012.15L582.255,952.576" style="fill:none;stroke:rgb(198,198,198);stroke-width:24px;"/>
        </g>
        <g transform="matrix(-1.83697e-16,-1,1,-1.83697e-16,-26.8788,1589.94)">
            <path d="M641.827,1012.15L582.255,952.576" style="fill:none;stroke:rgb(198,198,198);stroke-width:24px;"/>
        </g>
        <g transform="matrix(-1.83697e-16,-1,1,-1.83697e-16,-668.483,1585.38)">
            <path d="M641.827,1012.15L582.255,952.576" style="fill:none;stroke:rgb(198,198,198);stroke-width:24px;"/>
        </g>
        <g transform="matrix(-1.83697e-16,-1,1,-1.83697e-16,-675.336,942.574)">
            <path d="M641.827,1012.15L582.255,952.576" style="fill:none;stroke:rgb(198,198,198);stroke-width:24px;"/>
        </g>
        <g transform="matrix(-1.83697e-16,-1,1,-1.83697e-16,-28.834,942.953)">
            <path d="M641.827,1012.15L582.255,952.576" style="fill:none;stroke:rgb(198,198,198);stroke-width:24px;"/>
        </g>
    </g>
</svg>
